<svg width="18" height="18" viewBox="0 0 18 18" fill="none" xmlns="http://www.w3.org/2000/svg">
<path d="M10.8488 4.39178L10.8664 4.4035L15.4191 8.95624C15.4285 8.96569 15.4357 8.98048 15.4357 9.00018C15.4357 9.0099 15.4338 9.01834 15.4308 9.02557L15.4191 9.04413L10.8664 13.5969C10.8582 13.605 10.8512 13.6084 10.8459 13.6105C10.8401 13.6129 10.8322 13.6154 10.8224 13.6154C10.8127 13.6154 10.8048 13.6129 10.799 13.6105L10.7785 13.5969C10.7691 13.5875 10.762 13.5725 10.7619 13.5529C10.7619 13.543 10.7638 13.5339 10.7668 13.5266L10.7785 13.509L15.2873 9.00018L10.7785 4.49139C10.7691 4.48195 10.7619 4.4672 10.7619 4.44745C10.7619 4.42768 10.7691 4.41293 10.7785 4.4035C10.7879 4.39407 10.8027 4.38692 10.8224 4.3869C10.8325 4.3869 10.8414 4.3887 10.8488 4.39178Z" fill="white" stroke="white"/>
<path d="M15.2475 9.5625H2.625C2.3175 9.5625 2.0625 9.3075 2.0625 9C2.0625 8.6925 2.3175 8.4375 2.625 8.4375H15.2475C15.555 8.4375 15.81 8.6925 15.81 9C15.81 9.3075 15.555 9.5625 15.2475 9.5625Z" fill="white"/>
</svg>
